<?xml version="1.0" encoding="UTF-8" standalone="no"?>
<!-- Created with Inkscape (http://www.inkscape.org/) -->

<svg
   version="1.1"
   id="svg2"
   xml:space="preserve"
   width="588.18799"
   height="132.62187"
   viewBox="0 0 588.18799 132.62187"
   sodipodi:docname="WRO-MAIN1-reg.svg"
   inkscape:version="1.1.1 (3bf5ae0d25, 2021-09-20)"
   xmlns:inkscape="http://www.inkscape.org/namespaces/inkscape"
   xmlns:sodipodi="http://sodipodi.sourceforge.net/DTD/sodipodi-0.dtd"
   xmlns="http://www.w3.org/2000/svg"
   xmlns:svg="http://www.w3.org/2000/svg"><defs
     id="defs6"><clipPath
       clipPathUnits="userSpaceOnUse"
       id="clipPath20"><path
         d="M 0,99.466 H 441.141 V 0 H 0 Z"
         id="path18" /></clipPath></defs><sodipodi:namedview
     id="namedview4"
     pagecolor="#ffffff"
     bordercolor="#999999"
     borderopacity="1"
     inkscape:pageshadow="0"
     inkscape:pageopacity="0"
     inkscape:pagecheckerboard="0"
     showgrid="false"
     inkscape:zoom="0.76879296"
     inkscape:cx="381.76728"
     inkscape:cy="64.386645"
     inkscape:window-width="1920"
     inkscape:window-height="1027"
     inkscape:window-x="-8"
     inkscape:window-y="-8"
     inkscape:window-maximized="1"
     inkscape:current-layer="g8" /><g
     id="g8"
     inkscape:groupmode="layer"
     inkscape:label="WRO-MAIN1-reg"
     transform="matrix(1.3333333,0,0,-1.3333333,0,132.62187)"><g
       id="g10"
       transform="translate(278.3782,98.5176)"><path
         d="M 0,0 -9.598,-36.65 -18.581,0 H -28.842 L -37.954,-36.518 -47.071,0 h -17.524 l 15.498,-60.16 h 11.361 l 8.5,32.8 8.366,-32.8 H -9.509 L 6.872,0 Z"
         style="fill:#020909;fill-opacity:1;fill-rule:nonzero;stroke:none"
         id="path12" /></g><g
       id="g14"><g
         id="g16"
         clip-path="url(#clipPath20)"><g
           id="g22"
           transform="translate(33.7195,59.6144)"><path
             d="m 0,0 3.711,4.462 -15.697,13.172 v 3.909 c 3.204,1.473 5.434,4.704 5.434,8.46 0,5.144 -4.173,9.314 -9.316,9.314 -5.144,0 -9.314,-4.17 -9.314,-9.314 0,-3.957 2.472,-7.327 5.952,-8.677 V 17.591 L -33.72,3.102 -29.781,-0.834 -19.23,9.716 V -1.712 l -10.108,-17.505 4.824,-2.785 8.705,15.079 8.86,-15.345 4.824,2.785 -9.861,17.079 v 12.766 z"
             style="fill:#005a91;fill-opacity:1;fill-rule:nonzero;stroke:none"
             id="path24" /></g><g
           id="g26"
           transform="translate(51.746,68.6001)"><path
             d="M 0,0 V 1.001 L 10.513,-9.515 14.452,-5.576 0,8.876 v 3.681 c 3.204,1.473 5.433,4.704 5.433,8.46 0,5.144 -4.169,9.314 -9.313,9.314 -5.146,0 -9.316,-4.17 -9.316,-9.314 0,-3.957 2.471,-7.327 5.951,-8.677 V 9.069 l -14.679,-14.677 3.939,-3.941 10.74,10.743 v -2.219 l -10.571,-20.934 h 4.07 l -3.603,-6.244 4.824,-2.785 5.211,9.029 h 6.987 l 5.363,-9.295 4.825,2.785 -3.757,6.51 h 4.986 z"
             style="fill:#009fe3;fill-opacity:1;fill-rule:nonzero;stroke:none"
             id="path28" /></g><g
           id="g30"
           transform="translate(92.5816,59.8105)"><path
             d="m 0,0 3.582,4.266 -15.697,13.172 v 3.909 c 3.204,1.473 5.431,4.704 5.431,8.46 0,5.144 -4.169,9.314 -9.313,9.314 -5.144,0 -9.313,-4.17 -9.313,-9.314 0,-3.957 2.471,-7.327 5.951,-8.68 V 17.395 L -33.902,2.855 -29.963,-1.084 -19.359,9.52 V -1.908 l -10.108,-17.505 4.825,-2.785 8.704,15.077 8.857,-15.343 4.824,2.786 -9.858,17.078 v 12.767 z"
             style="fill:#008e36;fill-opacity:1;fill-rule:nonzero;stroke:none"
             id="path32" /></g><g
           id="g34"
           transform="translate(110.4792,68.599)"><path
             d="M 0,0 V 1.001 L 10.513,-9.512 14.452,-5.576 0,8.879 v 3.681 c 3.204,1.473 5.431,4.701 5.431,8.457 0,5.144 -4.167,9.316 -9.311,9.316 -5.146,0 -9.316,-4.172 -9.316,-9.316 0,-3.955 2.471,-7.327 5.951,-8.677 V 9.069 L -21.804,-5.49 -17.867,-9.429 -7.245,1.194 v -2.219 l -10.571,-20.934 h 4.07 l -3.603,-6.241 4.821,-2.785 5.211,9.026 h 6.987 l 5.366,-9.292 4.825,2.785 -3.759,6.507 h 4.988 z"
             style="fill:#94c11f;fill-opacity:1;fill-rule:nonzero;stroke:none"
             id="path36" /></g><g
           id="g38"
           transform="translate(151.5732,59.8105)"><path
             d="m 0,0 3.579,4.266 -15.696,13.172 v 3.909 c 3.206,1.473 5.433,4.701 5.433,8.46 0,5.144 -4.169,9.314 -9.313,9.314 -5.144,0 -9.316,-4.17 -9.316,-9.314 0,-3.957 2.471,-7.327 5.951,-8.677 v -3.735 l -14.669,-14.669 3.939,-3.939 10.73,10.73 V -1.91 l -10.105,-17.503 4.825,-2.785 8.704,15.08 8.857,-15.346 4.824,2.786 -9.86,17.078 v 12.767 z"
             style="fill:#ffdd00;fill-opacity:1;fill-rule:nonzero;stroke:none"
             id="path40" /></g><g
           id="g42"
           transform="translate(169.4703,68.6006)"><path
             d="M 0,0 V 1.001 L 10.513,-9.515 14.452,-5.576 0,8.876 v 3.681 c 3.204,1.473 5.431,4.701 5.431,8.46 0,5.144 -4.17,9.314 -9.311,9.314 -5.146,0 -9.316,-4.17 -9.316,-9.314 0,-3.957 2.471,-7.33 5.951,-8.68 V 9.069 L -21.809,-5.495 -17.87,-9.434 -7.245,1.194 v -2.219 l -10.571,-20.934 h 4.07 l -3.603,-6.244 4.821,-2.785 5.214,9.029 h 6.984 l 5.366,-9.295 4.825,2.785 -3.757,6.51 h 4.986 z"
             style="fill:#f39200;fill-opacity:1;fill-rule:nonzero;stroke:none"
             id="path44" /></g><g
           id="g46"
           transform="translate(210.2034,59.8105)"><path
             d="m 0,0 3.579,4.266 -15.694,13.172 v 3.909 c 3.204,1.473 5.434,4.701 5.434,8.46 0,5.144 -4.17,9.314 -9.316,9.314 -5.144,0 -9.313,-4.17 -9.313,-9.314 0,-3.957 2.471,-7.33 5.951,-8.68 V 17.395 L -33.848,2.906 -29.909,-1.033 -19.359,9.52 V -1.908 l -10.108,-17.505 4.825,-2.785 8.704,15.077 8.86,-15.343 4.824,2.786 -9.861,17.078 v 12.767 z"
             style="fill:#e6007e;fill-opacity:1;fill-rule:nonzero;stroke:none"
             id="path48" /></g><g
           id="g50"
           transform="translate(421.559,68.6001)"><path
             d="M 0,0 V 3.432 L 16.681,-1.071 19.582,3.95 0,8.876 v 3.681 c 3.204,1.473 5.433,4.704 5.433,8.46 0,5.144 -4.169,9.314 -9.313,9.314 -5.146,0 -9.316,-4.17 -9.316,-9.314 0,-3.957 2.471,-7.327 5.951,-8.677 V 9.069 1.194 -1.025 l -10.571,-20.934 h 4.07 l -3.603,-6.244 4.824,-2.785 5.211,9.029 h 6.984 l 5.366,-9.295 4.825,2.785 -3.757,6.51 h 4.986 z"
             style="fill:#e30613;fill-opacity:1;fill-rule:nonzero;stroke:none"
             id="path52" /></g><g
           id="g54"
           transform="translate(307.2557,72.1754)"><path
             d="m 0,0 h 3.52 c 6.671,0 10.006,3.459 10.006,10.381 0,6.923 -3.335,10.384 -10.006,10.384 H 0 Z m -17.443,-33.819 v 60.16 H 8.409 c 6.738,0 12.123,-1.422 16.156,-4.264 4.03,-2.844 6.047,-6.651 6.047,-11.422 0,-7.306 -4.336,-12.061 -13,-14.272 4.433,-1.642 7.301,-3.445 8.608,-5.409 1.304,-1.962 2.195,-5.772 2.664,-11.428 0.556,-6.74 1.688,-11.194 3.392,-13.365 H 13.341 c -1.202,2.785 -1.803,6.257 -1.803,10.419 l -0.089,3.561 -0.088,4.483 c 0,6.915 -2.791,10.373 -8.367,10.373 H 0 v -28.836 z"
             style="fill:#020909;fill-opacity:1;fill-rule:nonzero;stroke:none"
             id="path56" /></g><g
           id="g58"
           transform="translate(370.853,94.7198)"><path
             d="m 0,0 c -3.295,0 -5.522,-1.817 -6.684,-5.45 -1.159,-3.633 -1.741,-10.595 -1.741,-20.891 0,-10.298 0.582,-17.261 1.741,-20.894 1.162,-3.633 3.389,-5.449 6.684,-5.449 3.292,0 5.522,1.816 6.681,5.449 1.162,3.633 1.744,10.596 1.744,20.894 0,10.266 -0.582,17.221 -1.744,20.87 C 5.522,-1.825 3.292,0 0,0 m 0.486,4.747 c 17.473,0 26.212,-10.366 26.212,-31.09 0,-20.725 -8.9,-31.088 -26.698,-31.088 -17.798,0 -26.698,10.599 -26.698,31.793 0,20.256 9.061,30.385 27.184,30.385"
             style="fill:#020909;fill-opacity:1;fill-rule:nonzero;stroke:none"
             id="path60" /></g><g
           id="g62"
           transform="translate(400.0061,96.1636)"><path
             d="M 0,0 H -0.902 V -2.208 H 0 c 0.706,0 1.382,0.212 1.382,1.113 C 1.382,-0.209 0.706,0 0,0 M 2.493,-5.482 H 1.562 l -1.608,2.63 h -0.856 v -2.63 h -0.735 v 6.129 h 1.742 c 1.218,0 2.071,-0.601 2.071,-1.742 0,-1.143 -0.826,-1.564 -1.425,-1.682 z M 0.212,2.283 c -2.571,0 -4.701,-2.133 -4.701,-4.701 0,-2.567 2.13,-4.7 4.701,-4.7 2.565,0 4.698,2.133 4.698,4.7 0,2.568 -2.133,4.701 -4.698,4.701 m 0,-10.048 c -2.992,0 -5.348,2.358 -5.348,5.347 0,2.99 2.356,5.348 5.348,5.348 2.986,0 5.345,-2.358 5.345,-5.348 0,-2.989 -2.359,-5.347 -5.345,-5.347"
             style="fill:#1d1d1b;fill-opacity:1;fill-rule:nonzero;stroke:none"
             id="path64" /></g><g
           id="g66"
           transform="translate(69.9012,0.2979)"><path
             d="M 0,0 H -2.576 L -7.077,15.13 -11.551,0 h -2.576 l -5.395,18.736 h 2.765 l 4.04,-14.75 4.311,14.75 h 2.685 l 4.311,-14.75 4.04,14.75 h 2.766 z"
             style="fill:#1d1d1b;fill-opacity:1;fill-rule:nonzero;stroke:none"
             id="path68" /></g><g
           id="g70"
           transform="translate(85.5707,17.0283)"><path
             d="m 0,0 c -3.823,0 -6.969,-2.739 -6.969,-7.321 0,-4.556 3.173,-7.322 6.969,-7.322 3.823,0 6.968,2.766 6.968,7.322 C 6.968,-2.739 3.823,0 0,0 m 0,-17.028 c -5.26,0 -9.653,3.66 -9.653,9.652 0,5.993 4.393,9.653 9.653,9.653 5.26,0 9.653,-3.66 9.653,-9.653 0,-5.992 -4.393,-9.652 -9.653,-9.652"
             style="fill:#1d1d1b;fill-opacity:1;fill-rule:nonzero;stroke:none"
             id="path72" /></g><g
           id="g74"
           transform="translate(105.9852,16.2148)"><path
             d="M 0,0 C -0.84,0.623 -1.844,0.678 -3.145,0.678 H -5.07 v -6.345 h 1.925 c 1.301,0 2.305,0.054 3.145,0.65 0.841,0.624 1.193,1.383 1.193,2.522 C 1.193,-1.383 0.841,-0.597 0,0 m 1.817,-15.89 -4.881,8.053 H -5.07 V -15.89 H -7.701 V 2.819 h 5.288 c 3.335,0 6.318,-1.545 6.318,-5.259 0,-3.282 -2.278,-4.746 -4.258,-5.125 l 5.342,-8.325 z"
             style="fill:#1d1d1b;fill-opacity:1;fill-rule:nonzero;stroke:none"
             id="path76" /></g><g
           id="g78"
           transform="translate(112.9247,0.3252)"><path
             d="M 0,0 V 18.709 H 2.63 V 2.224 H 9.219 L 9.219,0 Z"
             style="fill:#1d1d1b;fill-opacity:1;fill-rule:nonzero;stroke:none"
             id="path80" /></g><g
           id="g82"
           transform="translate(130.1141,16.7842)"><path
             d="M 0,0 H -3.01 V -14.182 H 0 c 4.23,0 7.212,2.766 7.212,7.078 C 7.212,-2.793 4.23,0 0,0 M 0,-16.459 H -5.64 V 2.25 H 0 c 5.613,0 9.897,-3.552 9.897,-9.354 0,-5.803 -4.284,-9.355 -9.897,-9.355"
             style="fill:#1d1d1b;fill-opacity:1;fill-rule:nonzero;stroke:none"
             id="path84" /></g><g
           id="g86"
           transform="translate(156.1678,16.2148)"><path
             d="M 0,0 C -0.84,0.623 -1.844,0.678 -3.145,0.678 H -5.07 v -6.345 h 1.925 c 1.301,0 2.305,0.054 3.145,0.65 0.841,0.624 1.193,1.383 1.193,2.522 C 1.193,-1.383 0.841,-0.597 0,0 m 1.817,-15.89 -4.881,8.053 H -5.07 V -15.89 H -7.701 V 2.819 h 5.288 c 3.335,0 6.318,-1.545 6.318,-5.259 0,-3.282 -2.278,-4.746 -4.258,-5.125 l 5.342,-8.325 z"
             style="fill:#1d1d1b;fill-opacity:1;fill-rule:nonzero;stroke:none"
             id="path88" /></g><g
           id="g90"
           transform="translate(171.703,17.0283)"><path
             d="m 0,0 c -3.823,0 -6.969,-2.739 -6.969,-7.321 0,-4.556 3.173,-7.322 6.969,-7.322 3.823,0 6.969,2.766 6.969,7.322 C 6.969,-2.739 3.823,0 0,0 m 0,-17.028 c -5.26,0 -9.653,3.66 -9.653,9.652 0,5.993 4.393,9.653 9.653,9.653 5.26,0 9.652,-3.66 9.652,-9.653 0,-5.992 -4.392,-9.652 -9.652,-9.652"
             style="fill:#1d1d1b;fill-opacity:1;fill-rule:nonzero;stroke:none"
             id="path92" /></g><g
           id="g94"
           transform="translate(193.1483,8.3242)"><path
             d="m 0,0 c -0.922,0.623 -2.088,0.678 -3.281,0.678 h -2.821 v -6.535 h 2.821 c 1.193,0 2.359,0.027 3.281,0.651 0.922,0.623 1.355,1.436 1.355,2.63 C 1.355,-1.383 0.922,-0.624 0,0 M -3.688,8.622 H -6.102 V 2.685 h 2.197 c 1.301,0 2.17,0.108 2.793,0.569 0.624,0.461 1.248,1.111 1.248,2.467 0,2.386 -1.818,2.901 -3.824,2.901 M 2.061,-6.779 c -1.166,-0.922 -2.658,-1.22 -4.718,-1.22 H -8.731 V 10.71 h 5.043 c 1.762,0 3.281,-0.136 4.447,-0.895 C 1.897,9.083 2.766,7.972 2.766,6.02 2.766,4.04 1.491,2.413 -0.082,1.925 V 1.871 c 2.522,-0.516 4.149,-2.088 4.149,-4.556 0,-1.952 -0.84,-3.172 -2.006,-4.094"
             style="fill:#1d1d1b;fill-opacity:1;fill-rule:nonzero;stroke:none"
             id="path96" /></g><g
           id="g98"
           transform="translate(208.9266,17.0283)"><path
             d="m 0,0 c -3.823,0 -6.969,-2.739 -6.969,-7.321 0,-4.556 3.173,-7.322 6.969,-7.322 3.823,0 6.969,2.766 6.969,7.322 C 6.969,-2.739 3.823,0 0,0 m 0,-17.028 c -5.261,0 -9.653,3.66 -9.653,9.652 0,5.993 4.392,9.653 9.653,9.653 5.26,0 9.652,-3.66 9.652,-9.653 0,-5.992 -4.392,-9.652 -9.652,-9.652"
             style="fill:#1d1d1b;fill-opacity:1;fill-rule:nonzero;stroke:none"
             id="path100" /></g><g
           id="g102"
           transform="translate(226.495,16.8379)"><path
             d="M 0,0 V -16.513 H -2.63 V 0 H -7.918 V 2.196 H 5.26 L 5.26,0 Z"
             style="fill:#1d1d1b;fill-opacity:1;fill-rule:nonzero;stroke:none"
             id="path104" /></g><g
           id="g106"
           transform="translate(248.0213,17.0283)"><path
             d="m 0,0 c -3.823,0 -6.969,-2.739 -6.969,-7.321 0,-4.556 3.173,-7.322 6.969,-7.322 3.823,0 6.969,2.766 6.969,7.322 C 6.969,-2.739 3.823,0 0,0 m 0,-17.028 c -5.261,0 -9.653,3.66 -9.653,9.652 0,5.993 4.392,9.653 9.653,9.653 5.26,0 9.652,-3.66 9.652,-9.653 0,-5.992 -4.392,-9.652 -9.652,-9.652"
             style="fill:#1d1d1b;fill-opacity:1;fill-rule:nonzero;stroke:none"
             id="path108" /></g><g
           id="g110"
           transform="translate(260.7352,0.3252)"><path
             d="M 0,0 V 18.709 H 2.63 V 2.224 H 9.219 L 9.219,0 Z"
             style="fill:#1d1d1b;fill-opacity:1;fill-rule:nonzero;stroke:none"
             id="path112" /></g><g
           id="g114"
           transform="translate(277.7352,8.1611)"><path
             d="M 0,0 V -7.836 H -2.63 V 0 l -6.508,10.873 h 2.956 l 4.854,-8.595 4.881,8.595 h 2.955 z"
             style="fill:#1d1d1b;fill-opacity:1;fill-rule:nonzero;stroke:none"
             id="path116" /></g><g
           id="g118"
           transform="translate(303.33,0.3252)"><path
             d="m 0,0 -1.221,14.777 h -0.081 l -5.72,-14.94 h -1.493 l -5.72,14.94 h -0.081 L -15.51,0 h -2.603 l 1.681,18.709 h 3.254 L -7.782,4.257 h 0.054 l 5.396,14.452 H 0.895 L 2.603,0 Z"
             style="fill:#1d1d1b;fill-opacity:1;fill-rule:nonzero;stroke:none"
             id="path120" /></g><g
           id="g122"
           transform="translate(314.2548,16.8926)"><path
             d="M 0,0 H -2.414 V -6.399 H 0 c 2.088,0 3.85,0.84 3.85,3.199 C 3.85,-0.868 2.088,0 0,0 m 0.217,-8.541 h -2.631 v -8.026 h -2.63 V 2.142 H 0.217 C 2.033,2.142 3.605,1.789 4.745,0.813 5.91,-0.19 6.562,-1.41 6.562,-3.2 c 0,-3.769 -2.929,-5.341 -6.345,-5.341"
             style="fill:#1d1d1b;fill-opacity:1;fill-rule:nonzero;stroke:none"
             id="path124" /></g><path
           d="m 323.606,19.034 h 2.63 V 0.325 h -2.63 z"
           style="fill:#1d1d1b;fill-opacity:1;fill-rule:nonzero;stroke:none"
           id="path126" /><g
           id="g128"
           transform="translate(337.0282,15.8076)"><path
             d="M 0,0 -3.281,-8.405 H 3.28 Z m 5.937,-15.482 -1.924,4.88 h -8.027 l -1.924,-4.88 H -8.704 L -1.085,3.281 H 1.22 l 7.646,-18.763 z"
             style="fill:#1d1d1b;fill-opacity:1;fill-rule:nonzero;stroke:none"
             id="path130" /></g><g
           id="g132"
           transform="translate(353.6464,16.7842)"><path
             d="M 0,0 H -3.01 V -14.182 H 0 c 4.23,0 7.213,2.766 7.213,7.078 C 7.213,-2.793 4.23,0 0,0 M 0,-16.459 H -5.64 V 2.25 H 0 c 5.613,0 9.897,-3.552 9.897,-9.354 0,-5.803 -4.284,-9.355 -9.897,-9.355"
             style="fill:#1d1d1b;fill-opacity:1;fill-rule:nonzero;stroke:none"
             id="path134" /></g><g
           id="g136"
           transform="translate(387.6229,8.2432)"><path
             d="M 0,0 -0.597,8.486 H -0.65 L -3.443,0 H -4.826 L -7.592,8.486 H -7.674 L -8.243,0 h -1.762 l 0.84,10.791 h 2.387 l 2.63,-8.107 h 0.054 l 2.603,8.107 H 0.922 L 1.763,0 Z M -13.639,9.272 V 0 h -1.762 v 9.272 h -3.036 v 1.519 h 7.835 V 9.272 Z"
             style="fill:#1d1d1b;fill-opacity:1;fill-rule:nonzero;stroke:none"
             id="path138" /></g></g></g></g></svg>
